<svg width="100" height="94" viewBox="0 0 100 94" fill="none" xmlns="http://www.w3.org/2000/svg">
<path d="M13.8274 0.000247664H11.7824C5.27512 0.000247664 0 5.20816 0 11.7837C0 16.4308 2.30305 19.0568 4.28068 21.8358C6.10884 24.4047 11.9165 31.9191 13.3855 33.8642C14.1616 34.8919 16.3118 39.1527 16.3118 42.1657V43.1645C16.3118 45.1016 14.7417 46.6718 12.8049 46.6718H12.8048C10.8681 46.6718 9.29802 45.1016 9.29802 43.1645V39.0265C9.29802 38.8286 9.12546 38.675 8.92894 38.6978L0.292791 39.699C0.125908 39.7183 0 39.8596 0 40.0277V43.6913C0 50.1991 5.27512 55.4746 11.7824 55.4746H13.8274C20.3347 55.4746 25.6098 50.1991 25.6098 43.6913V42.3322C25.6098 37.2415 24.3066 33.8476 21.1042 29.6189C19.6228 27.663 13.5283 19.7712 11.6967 17.1904C10.8349 15.976 9.29802 13.9328 9.29802 12.1469C9.29802 10.3002 10.7949 8.80311 12.6414 8.80311C14.6686 8.80311 16.3118 10.4465 16.3118 12.4738V16.4484C16.3118 16.6463 16.4843 16.7999 16.6809 16.7771L25.317 15.776C25.4839 15.7567 25.6098 15.6152 25.6098 15.4472V11.7837C25.6098 5.27589 20.3347 0.000247664 13.8274 0.000247664ZM89.8434 12.3075C89.8434 10.3721 88.2745 8.80311 86.3392 8.80311C84.404 8.80311 82.8351 10.3721 82.8351 12.3075V43.1673C82.8351 45.1027 84.404 46.6718 86.3392 46.6718C88.2745 46.6718 89.8434 45.1027 89.8434 43.1673V12.3075ZM99.1414 11.7837V43.6913C99.1414 50.1991 93.8663 55.4746 87.359 55.4746H85.3194C78.8122 55.4746 73.5371 50.1991 73.5371 43.6913V11.7837C73.5371 5.27589 78.8122 0.000247664 85.3194 0.000247664H87.359C93.8663 0.000247664 99.1414 5.27589 99.1414 11.7837V11.7837ZM54.1531 0.978255H68.5585C68.7412 0.978255 68.8894 1.12645 68.8894 1.30926V54.1596C68.8894 54.3423 68.7412 54.4906 68.5585 54.4906H60.3252C60.1424 54.4906 59.9943 54.3423 59.9943 54.1596V17.3345C59.9943 16.9923 59.4944 16.9562 59.4452 17.2948L54.0767 54.2073C54.053 54.37 53.9136 54.4906 53.7493 54.4906H44.7556C44.5913 54.4906 44.4518 54.37 44.4281 54.2073L39.0596 17.2948C39.0104 16.9562 38.5106 16.9923 38.5106 17.3345V54.1596C38.5106 54.3423 38.3625 54.4906 38.1797 54.4906H29.9464C29.7637 54.4906 29.6155 54.3423 29.6155 54.1596V1.30926C29.6155 1.12645 29.7637 0.978255 29.9464 0.978255H44.3517C44.5161 0.978255 44.6557 1.0989 44.6792 1.26162L48.9794 30.828C49.0251 31.143 49.4797 31.143 49.5255 30.828L53.8256 1.26162C53.8492 1.0989 53.9888 0.978255 54.1531 0.978255" fill="#FF9800"/>
<path d="M64.0053 92.9039H68.799C68.9005 92.9039 68.9828 92.8216 68.9828 92.7201V63.3811C68.9828 63.2797 68.9005 63.1974 68.799 63.1974H64.0053C63.9037 63.1974 63.8214 63.2797 63.8214 63.3811V92.7201C63.8214 92.8216 63.9037 92.9039 64.0053 92.9039ZM54.2027 82.7643L51.4755 63.3556C51.4628 63.2649 51.3851 63.1974 51.2936 63.1974H46.6952C46.5836 63.1974 46.4979 63.2961 46.5134 63.4067L50.636 92.7457C50.6488 92.8364 50.7263 92.9039 50.8179 92.9039H57.9582C58.0498 92.9039 58.1273 92.8364 58.1401 92.7457L62.2627 63.4067C62.2783 63.2961 62.1925 63.1974 62.0808 63.1974H57.4825C57.391 63.1974 57.3134 63.2649 57.3007 63.3556L54.5734 82.7643C54.5432 82.9791 54.2329 82.9791 54.2027 82.7643ZM45.6156 72.0753V70.6302C45.6156 66.5252 42.2884 63.1974 38.1841 63.1974H30.2471C30.1457 63.1974 30.0635 63.2797 30.0635 63.3811V92.7201C30.0635 92.8216 30.1457 92.9039 30.2471 92.9039H35.041C35.1425 92.9039 35.2247 92.8216 35.2247 92.7201V68.0841H37.211C39.0023 68.0841 40.4544 69.5366 40.4544 71.3282V71.5674C40.4544 74.2252 37.2437 75.1235 36.428 75.3087C36.3266 75.3318 36.2647 75.4347 36.2916 75.5353L40.9083 92.7677C40.9299 92.848 41.0026 92.9039 41.0858 92.9039H45.7201C45.8409 92.9039 45.9287 92.7894 45.8975 92.6726L42.0665 78.373C42.0665 78.373 45.6156 76.6811 45.6156 72.0753ZM93.1924 88.0172V79.4986H97.9533C98.0547 79.4986 98.137 79.4164 98.137 79.315V74.7956C98.137 74.6942 98.0547 74.6119 97.9533 74.6119H93.1924V68.0841H99.0756C99.1657 68.0841 99.2423 68.019 99.257 67.9301L99.9978 63.4109C100.016 63.2991 99.9298 63.1974 99.8165 63.1974H88.2149C88.1135 63.1974 88.0312 63.2797 88.0312 63.3811V92.7201C88.0312 92.8216 88.1135 92.9039 88.2149 92.9039H99.8165C99.9298 92.9039 100.016 92.8023 99.9978 92.6904L99.257 88.1711C99.2423 88.0823 99.1657 88.0172 99.0756 88.0172H93.1924ZM7.68132 62.6529H6.5461C2.93404 62.6529 0.00585938 65.5438 0.00585938 69.1941C0.00585938 71.774 1.28431 73.2317 2.38204 74.7744C3.39682 76.2005 6.62059 80.372 7.43596 81.4518C7.86682 82.0223 9.06032 84.3877 9.06032 86.0603V86.6148C9.06032 87.6901 8.18887 88.5618 7.11371 88.5618C6.03866 88.5618 5.167 87.6901 5.167 86.6148V84.3177C5.167 84.2078 5.07132 84.1225 4.96221 84.1351L0.168373 84.6909C0.0757764 84.7017 0.00585938 84.7801 0.00585938 84.8733V86.9072C0.00585938 90.5199 2.93404 93.4485 6.5461 93.4485H7.68132C11.2934 93.4485 14.2217 90.5199 14.2217 86.9072V86.1527C14.2217 83.3267 13.4982 81.4425 11.7206 79.0951C10.8982 78.0094 7.51523 73.6284 6.49856 72.1955C6.02026 71.5215 5.167 70.3873 5.167 69.3958C5.167 68.3706 5.99797 67.5396 7.023 67.5396C8.14818 67.5396 9.06032 68.4519 9.06032 69.5773V71.7838C9.06032 71.8935 9.1561 71.9789 9.26521 71.9662L14.059 71.4105C14.1517 71.3996 14.2217 71.3211 14.2217 71.2279V69.1941C14.2217 65.5814 11.2934 62.6529 7.68132 62.6529V62.6529ZM16.5423 63.4784V92.8174C16.5423 92.9189 16.6245 93.0013 16.7259 93.0013H27.5591C27.6606 93.0013 27.7428 92.9189 27.7428 92.8174V88.2981C27.7428 88.1967 27.6606 88.1144 27.5591 88.1144H21.7035V79.596H26.4644C26.5658 79.596 26.648 79.5137 26.648 79.4123V74.8929C26.648 74.7914 26.5658 74.7092 26.4644 74.7092H21.7035V68.1815H27.5591C27.6606 68.1815 27.7428 68.0992 27.7428 67.9978V63.4784C27.7428 63.377 27.6606 63.2947 27.5591 63.2947H16.7259C16.6245 63.2947 16.5423 63.377 16.5423 63.4784ZM85.7754 69.1959V71.2295C85.7754 71.3229 85.7055 71.4013 85.6128 71.4121L80.8189 71.9679C80.7098 71.9806 80.614 71.8953 80.614 71.7854V69.4867C80.614 68.4036 79.7292 67.5274 78.6432 67.5414C77.5743 67.5553 76.7239 68.4465 76.7239 69.5157V86.618C76.7239 87.701 77.6087 88.5774 78.6948 88.5633C79.7637 88.5495 80.614 87.6582 80.614 86.589V84.3159C80.614 84.206 80.7098 84.1207 80.8189 84.1334L85.6128 84.6892C85.7055 84.6999 85.7754 84.7783 85.7754 84.8717V86.9088C85.7754 90.5215 82.8471 93.4502 79.235 93.4502H78.1029C74.4908 93.4502 71.5626 90.5215 71.5626 86.9088V69.1959C71.5626 65.5832 74.4908 62.6545 78.1029 62.6545H79.235C82.8471 62.6545 85.7754 65.5832 85.7754 69.1959" fill="#535456"/>
</svg>
